<svg width="64" height="64" viewBox="0 0 64 64" xmlns="http://www.w3.org/2000/svg">
  <!-- Background circle -->
  <circle cx="32" cy="32" r="32" fill="#CC5500"/>
  
  <!-- Bitcoin symbol -->
  <path d="M24 16h20v4h-3v24h3v4H24v-4h3V20h-3v-4z" fill="white"/>
  <path d="M32 20v8h6c2.2 0 4-1.8 4-4s-1.8-4-4-4h-6z" fill="#CC5500"/>
  <path d="M32 28v8h6c2.2 0 4-1.8 4-4s-1.8-4-4-4h-6z" fill="#CC5500"/>
  
  <!-- Alert indicator -->
  <circle cx="48" cy="16" r="8" fill="#EF4444"/>
  <path d="M48 12l4 6H44l4-6z" fill="white"/>
  <circle cx="48" cy="19" r="1" fill="white"/>
</svg>